PathFileType	4	(X/Y/Z)	C:/Users/beibeiliu/ov580/test_trc/User3\sequence.3_training_dense_right.trc
DataRate	CameraRate	NumFrames	NumMarkers	Units	OrigDataRate	OrigDataStartFrame	OrigNumFrames
120	120	22	19	mm	120	53	78
Frame#	Time	ThumbCMC			ThumbMCP			ThumbIP			ThumbTip			IndexMCP			IndexPIP			IndexTip			MiddleMCP			MiddlePIP			MiddleTip			RingMCP			RingPIP			RingTip			PinkyMCP			PinkyPIP			PinkyTip			BackHand1			BackHand2			BackHand3	
		X0	Y0	Z0	X1	Y1	Z1	X2	Y2	Z2	X3	Y3	Z3	X4	Y4	Z4	X5	Y5	Z5	X6	Y6	Z6	X7	Y7	Z7	X8	Y8	Z8	X9	Y9	Z9	X10	Y10	Z10	X11	Y11	Z11	X12	Y12	Z12	X13	Y13	Z13	X14	Y14	Z14	X15	Y15	Z15	X16	Y16	Z16	X17	Y17	Z17	X18	Y18	Z18	
52	0.433333	86.0763	48.2226	-8.01293	62.8295	59.4361	-25.563	38.7886	59.6986	-41.1748	22.2971	67.3684	-52.2358	28.3179	25.2718	-61.1811	8.20883	26.8072	-76.8831	-14.2586	19.1798	-89.3014	21.9178	5.86372	-61.8195	1.05947	10.5652	-74.3293	-27.1019	6.46843	-90.006	21.2989	-7.09839	-48.9329	2.02407	-7.312	-60.4338	-21.8342	-10.5115	-74.4018	29.6414	-19.4028	-29.8146	11.6941	-20.6484	-42.2138	-6.34119	-22.4659	-55.5782	70.4672	-13.527	-26.2749	96.8327	-11.9635	-8.0519	88.3295	16.8386	-25.7914	
53	0.441667	94.979	49.9484	-7.93086	79.2789	67.3204	-28.7707	59.3978	75.1336	-46.0934	42.6628	83.9568	-63.7514	42.5318	41.7697	-65.79	23.9159	44.1703	-81.6206	3.39102	45.0178	-97.3063	30.2979	27.2287	-67.9681	7.15658	31.5472	-85.9178	-14.5253	35.482	-102.27	20.2652	11.182	-55.552	4.72724	15.5557	-68.0456	-15.8867	23.8491	-86.8002	23.1018	-1.94193	-34.1352	6.37499	0.363274	-46.3228	-6.38712	6.46925	-63.2656	67.2914	-5.52349	-26.5312	88.0268	-10.9592	-8.52012	92.6804	20.9202	-28.4359	
54	0.45	100.806	40.4087	-8.54982	93.1547	57.8417	-30.3202	77.9963	70.7192	-55.5405	68.8271	82.1626	-68.3576	52.0866	43.0319	-74.5561	37.6657	50.5777	-94.7392	23.0614	53.849	-109.626	37.4009	32.7769	-75.7728	20.4691	42.0948	-95.4883	6.4928	51.0607	-115.065	26.5475	24.1353	-62.6674	11.5191	27.871	-76.2461	-2.03733	36.8872	-95.1066	21.2843	11.844	-43.454	8.26153	18.9173	-56.9706	-5.39993	23.4603	-76.3296	61.9848	-1.15373	-30.3771	78.3666	-15.2086	-6.93791	92.6666	13.9689	-30.9539	
55	0.458333	107.746	21.6168	-12.1494	106.234	36.1901	-38.8633	100.857	50.73	-61.4981	91.3354	61.591	-81.6327	69.6858	29.7119	-81.0725	56.2215	35.6857	-101.204	45.0595	40.1332	-119.751	49.7283	22.5303	-81.8166	39.2321	32.4997	-102.698	25.1667	39.9232	-129.89	34.9321	16.9561	-66.7476	28.5945	28.0913	-89.3863	13.6317	31.5101	-108.581	28.4049	11.9147	-47.6522	16.387	19.3134	-65.6822	13.1019	24.0579	-84.8436	59.4714	-11.3772	-32.384	71.4747	-23.7119	-5.27225	96.41	-2.33572	-30.6419	
56	0.466667	115.887	-1.76455	-13.5238	119.468	10.5656	-41.3136	115.513	19.1638	-67.8813	114.148	29.0464	-88.0321	82.3885	0.0491054	-84.7895	77.4365	4.56169	-106.237	65.6309	6.12816	-130.53	64.2539	-4.70145	-86.577	55.4613	2.00362	-107.936	47.936	6.60623	-137.929	51.0965	-4.01708	-73.6544	40.5044	0.306633	-95.6479	31.7797	4.76102	-117.392	40.687	-4.54059	-55.3287	30.2127	0.181374	-73.1576	24.1722	3.20303	-94.2892	63.5921	-29.3509	-29.7413	72.0999	-40.1952	-4.79683	98.1531	-26.4124	-27.9661	
57	0.475	125.737	-25.6274	-10.5583	131.313	-20.4827	-42.6124	131.568	-15.3104	-72.6276	129.765	-9.87916	-87.6507	100.711	-37.1974	-83.1747	92.2149	-39.0298	-107.262	82.4125	-40.4654	-131.387	76.9418	-42.0544	-86.244	72.9173	-41.5595	-113.325	65.3841	-42.1361	-139.862	61.7552	-39.0909	-74.4573	57.8134	-38.6999	-97.3235	54.3742	-38.1925	-123.999	49.2737	-36.1924	-60.0025	48.7726	-32.5853	-77.3689	43.1986	-35.0287	-102.364	76.1285	-54.7308	-27.783	77.281	-60.4835	-2.42084	106.42	-52.9054	-22.414	
58	0.483333	135.994	-49.404	-9.1356	144.963	-46.4055	-36.2284	148.795	-47.3122	-65.377	144.426	-46.5574	-87.7941	114.812	-73.2608	-76.4474	112.469	-81.3393	-103.438	104.691	-86.8177	-124.849	94.8769	-79.4662	-79.1371	88.4098	-85.8054	-107.949	88.3766	-92.4628	-138.073	81.971	-74.5208	-72.0563	73.0862	-78.7054	-95.8503	71.7126	-83.1007	-118.522	63.8548	-68.1237	-56.264	61.8504	-69.6852	-76.5742	58.5597	-76.4248	-97.499	85.127	-78.9784	-20.1265	88.4857	-81.2977	9.53988	119.38	-77.5485	-12.7847	
59	0.491667	147.888	-63.3467	-4.66611	161.68	-64.7892	-32.9075	158.105	-70.8164	-62.1309	159.778	-70.5628	-82.8568	135.993	-99.3162	-69.9469	130.023	-110.27	-92.2817	121.619	-121.414	-114.284	113.107	-108.266	-75.186	110.765	-118.072	-98.9872	109.354	-128.412	-124.353	96.2525	-103.149	-66.5646	92.8071	-111.291	-88.2778	89.6838	-118.966	-111.094	79.5708	-93.2536	-50.6598	77.4246	-98.4291	-70.8829	78.9155	-105.19	-90.9142	101.485	-98.7942	-19.247	102.408	-96.2385	14.6212	133.069	-94.2916	-5.02088	
60	0.5	165.372	-63.4001	-1.76874	172.728	-68.8386	-29.9402	178.534	-75.0079	-59.022	178.652	-78.1316	-82.9484	154.397	-111.83	-65.3672	155.049	-124.733	-89.6451	151.763	-138.216	-109.859	138.567	-119.567	-66.4261	139.883	-131.022	-91.1983	135.231	-149.94	-120.33	118.106	-118.979	-64.9022	117.471	-127.051	-83.4163	116.706	-139.764	-106.805	98.9467	-108.086	-49.0697	104.818	-114.823	-71.0404	100.302	-126.063	-86.7533	119.411	-109.164	-13.6331	119.271	-102.746	16.2437	151.494	-99.229	-4.40632	
61	0.508333	175.749	-54.8786	-6.84727	189.001	-53.0365	-32.24	194.653	-61.592	-62.3395	191.144	-67.9506	-82.1794	179.191	-101.006	-62.906	178.173	-118.864	-86.7595	181.727	-129.865	-106.086	160.403	-117.061	-65.3014	168.868	-130.039	-91.2834	172.187	-145.259	-116.614	146.855	-117.398	-62.9787	148.223	-127.82	-80.2508	149.232	-142.272	-102.583	127.968	-113.443	-51.3066	127.278	-120.631	-67.4838	134.767	-133.768	-89.4837	142.069	-107.181	-15.012	140.299	-100.209	14.7174	173.438	-87.4773	-4.1612	
62	0.516667	181.572	-34.7685	-9.52696	191.072	-33.2986	-36.7338	199.813	-40.8642	-67.9643	200.765	-44.158	-87.7133	193.588	-81.3698	-66.7934	197.882	-94.5026	-88.1792	206.255	-107.745	-111.053	186.074	-103.449	-72.765	192.985	-109.916	-94.2866	199.359	-127.393	-121.176	167.4	-106.93	-64.025	177.016	-115.455	-86.8313	181.735	-130.212	-108.9	148.46	-109.225	-51.2646	155.667	-114.381	-72.0749	163.713	-122.327	-92.1069	164.95	-94.4293	-14.5553	160.058	-90.0725	14.9713	185.811	-68.9693	-9.0167	
63	0.525	175.675	-13.6638	-14.351	183.316	-10.0924	-41.4671	191.359	-12.006	-70.792	193.322	-16.7695	-94.8488	200.843	-53.1364	-72.5825	213.06	-59.2212	-98.0471	216.933	-74.3665	-118.385	199.408	-74.1569	-76.1406	207.098	-78.897	-98.3452	219.598	-93.0363	-128.704	185.661	-85.7543	-67.7374	193.645	-92.4889	-89.7468	201.793	-100.482	-112.04	170.271	-94.3326	-54.4195	176.464	-94.7821	-72.8169	186.153	-103.033	-93.5716	184.266	-76.9123	-20.6053	177.16	-70.8623	11.5532	192.628	-41.4156	-13.3416	
64	0.533333	152.488	1.15229	-11.746	158.57	10.5477	-45.9417	160.975	11.3386	-72.812	165.694	6.60061	-96.6217	191.383	-14.0504	-78.1313	202.784	-18.6902	-106.774	211.179	-27.8647	-127.148	199.623	-33.6873	-83.6586	207.37	-39.6233	-107.413	218.583	-39.1472	-136.241	194.795	-53.4835	-74.3339	205.289	-57.3567	-99.7061	210.72	-57.4576	-119.49	186.14	-67.5142	-60.2482	192.45	-68.4255	-81.2343	201.084	-71.9468	-100.562	192.017	-49.8941	-26.3707	187.445	-47.3825	5.80882	183.554	-15.4599	-15.3416	
65	0.541667	125.588	9.06492	-15.2059	123.382	15.4843	-44.53	123.428	20.7327	-73.4677	124.3	18.5467	-95.5367	161.515	12.6015	-82.6906	172.11	11.4678	-110.413	179.085	12.6748	-131.282	181.827	-1.79215	-91.4137	184.604	0.439107	-113.6	190.18	6.2564	-142.605	182.724	-16.3651	-83.3647	188.54	-14.2734	-105.419	194.643	-12.1343	-131.146	184.352	-34.7308	-68.4968	189.686	-34.2016	-91.1706	192.848	-31.1012	-109.23	182.641	-17.5074	-29.9165	178.345	-17.4336	0.368702	163.671	8.59465	-21.8913	
66	0.55	98.9191	13.3927	-15.9876	90.5261	15.9673	-43.3276	86.7404	20.7143	-75.8402	86.5383	17.5176	-95.9391	125.925	25.4721	-90.1824	126.644	30.9676	-112.883	133.907	34.326	-140.268	145.017	20.2837	-93.9938	146.506	23.6628	-120.166	150.187	29.6875	-152.011	157.41	7.75859	-91.3072	159.532	11.0209	-114.395	160.112	13.9545	-136.375	166.154	-8.04904	-73.5206	166.95	-6.60038	-92.1012	171.527	-4.11263	-117.887	162.978	9.24915	-39.7952	161.447	7.75138	-8.64351	132.359	25.0255	-23.6357	
67	0.558333	77.1182	10.744	-13.1734	66.2345	9.81425	-40.9177	62.2829	9.31444	-71.6137	54.2488	6.13911	-90.8129	93.3616	22.252	-91.1268	90.1374	25.0179	-116.292	95.6689	28.0558	-140.293	109.058	22.0199	-101.337	110.385	22.6116	-122.976	109.166	28.1782	-151.744	128.868	11.7137	-90.3394	125.726	14.2495	-113.732	125.038	16.8768	-139.596	144.516	-0.137801	-77.6036	138.505	3.62505	-100.851	141.449	5.41234	-120.274	136.131	19.1879	-41.3308	142.654	20.9894	-11.1199	103.912	30.1198	-28.4823	
68	0.566667	63.8095	1.43178	-9.64063	51.1885	-1.24429	-34.1714	38.0701	-3.63064	-65.3666	33.1773	-7.63551	-84.4495	71.3451	10.471	-86.8329	69.6132	11.669	-111.641	65.8992	14.5166	-136.738	90.1398	12.8884	-101.719	86.236	11.1942	-122.453	81.4144	16.309	-151.847	108.734	6.09415	-92.9059	101.72	6.87214	-113.903	97.8194	11.1873	-141.586	123.591	-2.41417	-79.1181	118.797	-2.33083	-96.2704	115.565	2.58792	-122.398	115.734	17.2963	-42.5552	124.238	20.813	-16.9523	89.8608	23.2711	-28.7736	
69	0.575	60.6328	-3.64642	-10.5656	44.2544	-8.0121	-31.2274	32.1934	-11.6144	-62.9103	25.162	-18.2913	-77.9674	57.4351	3.50692	-88.1731	54.8315	2.65036	-110.741	52.9614	3.32068	-134.383	76.7046	5.13374	-97.1369	70.6078	3.08882	-120.338	69.6316	4.55005	-151.282	96.8977	-0.896126	-89.72	89.2367	-1.73469	-111.194	89.4172	0.433522	-139.898	110.617	-7.61848	-78.5593	112.237	-8.61848	-96.7512	107.362	-6.43075	-118.495	108.99	12.6529	-45.6005	112.478	18.7836	-13.4738	77.9342	17.7541	-22.8167	
70	0.583333	55.079	-12.2781	-5.06693	38.4239	-17.6532	-30.2574	22.9509	-22.2626	-57.6889	16.7039	-28.3182	-75.9768	53.4888	-7.62818	-86.9485	46.5887	-9.08048	-108.862	42.6435	-9.92434	-136.066	72.541	-5.85343	-94.6112	61.461	-8.69406	-115.818	59.6953	-9.07275	-146.202	86.7031	-11.4348	-87.3447	81.251	-11.4322	-108.91	75.9481	-10.5675	-134.836	103.549	-16.1208	-76.6949	101.136	-17.6251	-98.041	96.0419	-15.4224	-114.209	101.972	2.47524	-44.9289	107.252	9.89917	-17.1039	72.8859	11.7918	-24.7394	
71	0.591667	49.1981	-20.1043	-3.905	29.3234	-25.6328	-24.8767	22.0835	-32.7453	-55.5035	10.6622	-39.4502	-75.3959	45.4584	-17.8471	-81.8325	42.8948	-21.8202	-107.895	36.0803	-22.6613	-128.824	61.1967	-17.1908	-94.4102	55.2361	-20.1494	-114.337	47.583	-21.1844	-147.381	80.673	-22.0747	-87.4403	78.9809	-24.0181	-108.242	70.0591	-21.7169	-135.715	100.789	-27.8972	-72.9652	93.963	-27.8338	-91.5601	90.8433	-27.4222	-111.784	97.3092	-3.68447	-40.8012	102.514	2.95339	-10.6679	67.627	0.804851	-18.9229	
72	0.6	46.2849	-25.1812	0.602557	26.7457	-31.0736	-26.4639	17.7025	-38.2022	-53.9816	8.84317	-46.1381	-73.0803	43.2415	-24.4383	-78.0934	37.3872	-28.4107	-107.206	34.3461	-30.9315	-130.352	58.5069	-23.9539	-92.3104	53.7525	-27.6443	-116.271	43.7852	-29.3425	-142.795	76.4766	-27.196	-84.266	69.1091	-29.7185	-108.48	68.2311	-30.0752	-134.604	95.158	-32.9397	-70.521	88.0035	-34.6063	-94.6222	87.3009	-31.7967	-116.572	92.0384	-8.81593	-40.2522	99.4205	-2.04785	-16.1298	60.1346	-4.35187	-22.6165	
73	0.608333	43.9603	-24.2009	-4.24047	22.1264	-31.1223	-24.5753	15.7022	-39.199	-52.6828	6.78582	-45.3805	-71.3092	39.3956	-23.7191	-80.688	30.8955	-27.8546	-105.199	30.2468	-29.3032	-127.764	55.4952	-22.6911	-92.524	50.9144	-27.6792	-113.949	42.117	-28.8274	-143.785	73.7589	-26.5618	-84.6493	71.1478	-28.3036	-110.655	65.4231	-30.1242	-135.177	94.7531	-32.5463	-73.2012	90.8331	-34.0942	-96.01	84.8392	-31.2008	-118.495	87.3818	-10.1357	-42.6539	96.4439	-1.20627	-13.7043	59.6345	-3.54056	-20.3096	
